<?xml version="1.0" standalone="no"?>
<!DOCTYPE svg PUBLIC "-//W3C//DTD SVG 20010904//EN"
 "http://www.w3.org/TR/2001/REC-SVG-20010904/DTD/svg10.dtd">
<svg version="1.0" xmlns="http://www.w3.org/2000/svg"
 width="342.000000pt" height="294.000000pt" viewBox="0 0 342.000000 294.000000"
 preserveAspectRatio="xMidYMid meet">

<g transform="translate(0.000000,294.000000) scale(0.100000,-0.100000)"
fill="#D5C1F7" stroke="none">
<path d="M1146 2889 c-42 -36 -35 -15 -182 -564 -58 -220 -111 -405 -116 -412
-7 -9 -103 -13 -366 -15 -391 -3 -397 -4 -438 -65 -24 -37 -24 -119 0 -156 40
-60 51 -62 401 -67 313 -5 320 -5 318 -25 -1 -11 -83 -323 -182 -693 -192
-715 -199 -748 -161 -810 55 -90 199 -75 243 25 9 21 103 360 208 753 105 393
195 723 200 733 9 15 32 17 259 17 249 0 250 0 265 -23 8 -12 154 -344 325
-737 171 -392 321 -732 335 -756 55 -93 194 -94 248 -1 9 17 13 199 17 767 l5
745 370 5 c323 4 374 7 401 22 46 25 68 65 68 123 0 58 -22 98 -68 123 -28 15
-100 17 -773 22 -408 3 -744 7 -746 10 -3 3 -96 214 -207 469 -110 255 -208
474 -217 488 -23 35 -65 53 -122 53 -42 0 -56 -5 -85 -31z m221 -765 c45 -104
82 -197 83 -206 0 -16 -13 -18 -145 -18 -140 0 -145 1 -145 21 0 11 23 104 50
205 28 101 50 187 50 190 0 3 5 4 12 2 7 -3 49 -90 95 -194z m861 -871 c1
-196 -2 -353 -6 -353 -12 0 -312 692 -306 702 3 5 74 7 157 6 l152 -3 3 -352z"/>
<path d="M3229 731 c-52 -16 -68 -33 -127 -128 -73 -120 -137 -182 -264 -256
-110 -65 -128 -88 -128 -167 0 -43 5 -55 33 -86 47 -51 111 -58 193 -20 147
67 301 198 381 323 80 126 99 201 68 267 -25 52 -100 84 -156 67z"/>
</g>
</svg>
